<?xml version="1.0" encoding="iso-8859-1"?>
<!-- Generator: Adobe Illustrator 19.0.0, SVG Export Plug-In . SVG Version: 6.00 Build 0)  -->
<svg version="1.1" id="Layer_1" xmlns="http://www.w3.org/2000/svg" xmlns:xlink="http://www.w3.org/1999/xlink" x="0px" y="0px"
	 viewBox="0 0 512 512" style="enable-background:new 0 0 512 512;" xml:space="preserve">
<path style="fill:#4C4C4C;" d="M330.693,498.264l-66.809-60.826v-61.602c0-4.355-3.529-7.885-7.885-7.885s-7.885,3.529-7.885,7.885
	v59.728l-66.897,62.78c-7.435,6.982,3.385,18.447,10.793,11.499l56.104-52.652v42.697c0,4.355,3.529,7.885,7.885,7.885
	c4.356,0,7.885-3.529,7.885-7.885v-41.125l56.193,51.161C327.569,516.745,338.229,505.125,330.693,498.264z"/>
<path style="fill:#666666;" d="M474.143,39.423C474.143,17.685,456.458,0,434.719,0H77.28C55.542,0,37.857,17.685,37.857,39.423
	v17.171h436.286V39.423z"/>
<rect x="37.857" y="44.154" style="fill:#4C4C4C;" width="436.286" height="12.44"/>
<path style="fill:#F2F2F2;" d="M37.857,56.594v319.243c0,4.356,3.529,7.885,7.885,7.885h420.517c4.356,0,7.885-3.529,7.885-7.885
	V56.594H37.857z"/>
<path style="fill:#E5E5E5;" d="M92.162,56.594H37.857v319.243c0,4.356,3.529,7.885,7.885,7.885h371.172L92.162,56.594z"/>
<g>
	<path style="fill:#FF7452;" d="M188.71,211.836c-1.38,0-2.78-0.363-4.05-1.124l-42.052-25.231
		c-3.734-2.241-4.945-7.084-2.705-10.818c2.24-3.734,7.085-4.945,10.818-2.705l42.052,25.231c3.734,2.241,4.945,7.084,2.705,10.818
		C194,210.471,191.389,211.836,188.71,211.836z"/>
	<path style="fill:#FF7452;" d="M232.871,197.117c-2.017,0-4.036-0.77-5.576-2.309c-3.079-3.08-3.079-8.072,0-11.151l46.257-46.257
		c3.08-3.078,8.072-3.078,11.151,0c3.079,3.08,3.079,8.072,0,11.151l-46.257,46.257
		C236.907,196.348,234.889,197.117,232.871,197.117z"/>
	<path style="fill:#FF7452;" d="M321.174,125.631c-3.532,0-6.747-2.392-7.644-5.974c-1.056-4.225,1.512-8.506,5.737-9.563
		l42.052-10.513c4.224-1.051,8.506,1.513,9.563,5.737c1.056,4.225-1.512,8.506-5.737,9.563l-42.052,10.513
		C322.451,125.555,321.808,125.631,321.174,125.631z"/>
</g>
<path style="fill:#FFD652;" d="M211.846,177.143c-17.101,0-31.013,13.912-31.013,31.013s13.912,31.013,31.013,31.013
	s31.013-13.912,31.013-31.013S228.946,177.143,211.846,177.143z"/>
<path style="fill:#FB9D46;" d="M223.935,227.079c-17.101,0-31.013-13.912-31.013-31.013c0-5.45,1.417-10.572,3.896-15.027
	c-9.525,5.3-15.986,15.466-15.986,27.117c0,17.101,13.912,31.013,31.013,31.013c11.651,0,21.817-6.461,27.117-15.986
	C234.507,225.662,229.384,227.079,223.935,227.079z"/>
<path style="fill:#FFD652;" d="M300.154,97.244c-17.101,0-31.013,13.912-31.013,31.013s13.912,31.013,31.013,31.013
	s31.013-13.912,31.013-31.013S317.254,97.244,300.154,97.244z"/>
<path style="fill:#FB9D46;" d="M311.193,148.232c-17.101,0-31.013-13.912-31.013-31.013c0-5.724,1.565-11.087,4.28-15.695
	c-9.157,5.396-15.318,15.356-15.318,26.733c0,17.101,13.912,31.013,31.013,31.013c11.377,0,21.336-6.162,26.733-15.318
	C322.28,146.667,316.917,148.232,311.193,148.232z"/>
<path style="fill:#FFD652;" d="M388.463,76.219c-17.101,0-31.013,13.912-31.013,31.013s13.912,31.013,31.013,31.013
	c17.101,0,31.013-13.912,31.013-31.013S405.563,76.219,388.463,76.219z"/>
<path style="fill:#FB9D46;" d="M398.976,127.732c-17.101,0-31.013-13.912-31.013-31.013c0-5.861,1.635-11.348,4.472-16.028
	c-8.975,5.44-14.985,15.302-14.985,26.541c0,17.101,13.912,31.013,31.013,31.013c11.239,0,21.1-6.01,26.541-14.985
	C410.323,126.097,404.836,127.732,398.976,127.732z"/>
<path id="SVGCleanerId_0" style="fill:#FFD652;" d="M123.537,141.399c-17.101,0-31.013,13.912-31.013,31.013
	s13.912,31.013,31.013,31.013s31.013-13.912,31.013-31.013S140.637,141.399,123.537,141.399z"/>
<g>
	<path id="SVGCleanerId_0_1_" style="fill:#FFD652;" d="M123.537,141.399c-17.101,0-31.013,13.912-31.013,31.013
		s13.912,31.013,31.013,31.013s31.013-13.912,31.013-31.013S140.637,141.399,123.537,141.399z"/>
</g>
<path style="fill:#FB9D46;" d="M135.627,191.335c-17.101,0-31.013-13.912-31.013-31.013c0-5.45,1.417-10.572,3.896-15.027
	c-9.525,5.3-15.986,15.466-15.986,27.117c0,17.101,13.912,31.013,31.013,31.013c11.651,0,21.817-6.461,27.117-15.986
	C146.199,189.918,141.076,191.335,135.627,191.335z"/>
<g>
	<path style="fill:#458FDE;" d="M136.153,229.707h-29.436c-4.355,0-7.885,3.529-7.885,7.885v71.488c0,4.356,3.529,7.885,7.885,7.885
		h29.436c4.355,0,7.885-3.529,7.885-7.885v-71.488C144.037,233.236,140.507,229.707,136.153,229.707z"/>
	<path style="fill:#458FDE;" d="M315.573,179.245h-29.436c-4.355,0-7.885,3.529-7.885,7.885v121.95c0,4.356,3.529,7.885,7.885,7.885
		h29.436c4.355,0,7.885-3.529,7.885-7.885V187.13C323.458,182.774,319.928,179.245,315.573,179.245z"/>
	<path style="fill:#458FDE;" d="M405.283,154.014h-29.436c-4.355,0-7.885,3.529-7.885,7.885V309.08c0,4.356,3.529,7.885,7.885,7.885
		h29.436c4.356,0,7.885-3.529,7.885-7.885V161.899C413.168,157.543,409.638,154.014,405.283,154.014z"/>
	<path style="fill:#458FDE;" d="M225.863,250.733h-29.436c-4.355,0-7.885,3.529-7.885,7.885v50.462c0,4.356,3.529,7.885,7.885,7.885
		h29.436c4.355,0,7.885-3.529,7.885-7.885v-50.462C233.747,254.262,230.217,250.733,225.863,250.733z"/>
</g>
<path style="fill:#4F5AA8;" d="M435.771,316.964H76.229c-4.355,0-7.885-3.529-7.885-7.885c0-4.355,3.529-7.885,7.885-7.885h359.542
	c4.356,0,7.885,3.529,7.885,7.885C443.655,313.435,440.125,316.964,435.771,316.964z"/>
<path style="fill:#666666;" d="M491.489,334.311H20.511c-4.356,0-7.885,3.529-7.885,7.885v33.641c0,4.356,3.529,7.885,7.885,7.885
	h470.979c4.355,0,7.885-3.529,7.885-7.885v-33.641C499.374,337.84,495.844,334.311,491.489,334.311z"/>
<g>
</g>
<g>
</g>
<g>
</g>
<g>
</g>
<g>
</g>
<g>
</g>
<g>
</g>
<g>
</g>
<g>
</g>
<g>
</g>
<g>
</g>
<g>
</g>
<g>
</g>
<g>
</g>
<g>
</g>
</svg>
